<svg width="10" height="12" viewBox="0 0 10 12" fill="none" xmlns="http://www.w3.org/2000/svg">
<path fill-rule="evenodd" clip-rule="evenodd" d="M2.9433 0.373318C2.9433 0.373318 3.86914 1.54958 4.20885 2.79142C4.40165 3.62143 3.85137 3.80588 3.49279 3.94373C3.13416 4.08157 2.52596 4.52917 3.05592 5.7322C3.58589 6.93523 4.64416 8.07049 5.21412 8.26738C5.78397 8.46432 5.91341 8.61577 6.73694 7.9086C7.32386 7.40451 8.25115 8.12054 8.73541 8.57346C8.93062 8.75598 9.85756 9.79324 9.85756 9.79324C9.85756 9.79324 10.4806 10.7232 9.12072 11.4967C7.76093 12.2702 7.37091 12.1773 5.9051 11.0426C4.43929 9.9079 1.27423 7.50881 0.0318069 2.32069C-0.0407703 2.01364 0.0220465 1.72275 0.108088 1.45152C0.277668 0.916703 1.30216 0.114911 1.84614 0.0231934C2.22994 -0.0415656 2.63923 0.0153526 2.9433 0.373318Z" fill="#282828"/>
</svg>
