<svg width="154" height="32" viewBox="0 0 154 32" fill="none" xmlns="http://www.w3.org/2000/svg">
<path fill-rule="evenodd" clip-rule="evenodd" d="M6.01238 10.6546C11.2267 5.50227 17.4792 4.1906 19.9964 7.70993C22.5139 11.2114 20.3161 18.2346 15.1221 23.3653C9.90774 28.4981 3.65521 29.8314 1.13701 26.31C-1.38017 22.8089 0.817328 15.7864 6.01238 10.6546Z" fill="#F4811F"/>
<path fill-rule="evenodd" clip-rule="evenodd" d="M9.44712 7.90865C8.8876 8.32667 8.30812 8.82453 7.74893 9.38099C3.19324 13.8367 1.29613 19.9848 3.53322 23.0473C5.85047 26.1103 11.444 24.9963 16.0796 20.4621C18.5561 18.0543 20.2347 15.2303 20.9336 12.6238C21.1542 10.7125 20.8744 9.00271 19.9949 7.70958C17.9976 4.98486 13.7214 5.20246 9.44712 7.90865Z" fill="#AF2A30"/>
<path fill-rule="evenodd" clip-rule="evenodd" d="M12.024 25.8913C9.58633 27.7021 7.08877 28.618 4.63281 28.238C5.67135 28.2788 6.49 27.1463 7.16894 25.6339C7.86851 24.0609 8.28799 22.6094 8.60801 21.2577C9.08668 19.1076 9.12727 17.576 8.88777 17.2388C8.46796 16.7012 7.52888 16.8396 6.44974 17.4567C5.95145 17.7356 5.2715 17.5372 6.07019 16.5823C6.88952 15.5876 10.1249 13.2408 11.2849 12.8625C12.5632 12.5035 14.0216 13.001 13.5219 14.3932C13.1627 15.4077 8.6875 27.1049 12.024 25.8913ZM15.6812 7.75114C15.8591 7.92967 15.9606 8.1668 15.9803 8.44706V8.64478C15.9407 9.28175 15.5611 10.0575 14.9008 10.7127C13.8622 11.7491 12.5037 12.1065 11.9046 11.5093C11.2852 10.9134 11.6644 9.57952 12.704 8.54609C13.7425 7.49076 15.1017 7.17312 15.6812 7.75114Z" fill="#FEFEFE"/>
<mask id="mask0_1_172" style="mask-type:alpha" maskUnits="userSpaceOnUse" x="74" y="0" width="15" height="17">
<path fill-rule="evenodd" clip-rule="evenodd" d="M74.9336 0.115234H88.5854V16.9889H74.9336V0.115234Z" fill="white"/>
</mask>
<g mask="url(#mask0_1_172)">
<path fill-rule="evenodd" clip-rule="evenodd" d="M88.5854 13.6842L84.2933 15.965L81.4385 14.2737C81.4385 14.2737 82.0318 13.9157 82.7 13.4798C83.3657 13.021 83.0856 12.9429 82.7257 12.5343C82.0318 12.0462 78.9951 10.1006 78.9951 10.1006L79.9737 9.61452L79.0752 7.51532L81.2061 7.46446L81.2595 6.23431C81.2595 6.23431 84.5761 8.35911 85.091 8.53898C85.6322 8.71784 86.0415 8.43557 86.1197 7.69283V3.03296L87.4549 3.64938L88.4579 1.88096L88.5114 1.80349C87.0956 0.727613 85.3227 0.115234 83.4181 0.115234C78.7356 0.115234 74.9336 3.87843 74.9336 8.53898C74.9336 13.2251 78.7356 16.989 83.4181 16.989C85.346 16.989 87.1484 16.3466 88.5618 15.2475L88.5854 13.6842Z" fill="#FEFEFE"/>
</g>
<path fill-rule="evenodd" clip-rule="evenodd" d="M88.5091 4.4668H87.9926V12.584L81.6423 8.84372L81.3828 9.2833L88.0724 13.2247L88.5091 12.8404V4.4668Z" fill="#FEFEFE"/>
<path fill-rule="evenodd" clip-rule="evenodd" d="M24.3242 16.9101H28.3363L31.4986 5.18359H27.4899L24.3242 16.9101Z" fill="#FEFEFE"/>
<path fill-rule="evenodd" clip-rule="evenodd" d="M45.0273 16.9101H49.0408L52.2027 5.18359H48.193L45.0273 16.9101Z" fill="#FEFEFE"/>
<path fill-rule="evenodd" clip-rule="evenodd" d="M65.7031 16.9101H69.7392L72.8751 5.18359H68.8634L65.7031 16.9101Z" fill="#FEFEFE"/>
<path fill-rule="evenodd" clip-rule="evenodd" d="M41.244 9.20555H45.3075C45.8244 6.56807 44.1011 5.21094 40.1391 5.21094C35.5872 5.21094 32.5034 7.43847 31.4489 11.2798C30.498 14.8109 32.3738 16.9357 36.6693 16.9357C41.0397 16.9357 43.613 15.5813 44.6671 12.5844H40.6273C40.0624 13.9159 39.0069 14.6068 37.5685 14.6068C35.6413 14.6068 34.867 13.378 35.4607 11.1515C36.076 8.81986 37.5685 7.54188 39.5221 7.54188C40.7826 7.54188 41.3746 8.07847 41.244 9.20555Z" fill="#FEFEFE"/>
<path fill-rule="evenodd" clip-rule="evenodd" d="M61.9692 9.20555H65.9819C66.5218 6.56807 64.7959 5.21094 60.8643 5.21094C56.2863 5.21094 53.1758 7.43847 52.1488 11.2798C51.1961 14.8109 53.0736 16.9357 57.3661 16.9357C61.7121 16.9357 64.2851 15.5813 65.3889 12.5844H61.3268C60.7608 13.9159 59.7081 14.6068 58.2673 14.6068C56.3137 14.6068 55.5665 13.378 56.1842 11.1515C56.8012 8.81986 58.2673 7.54188 60.2219 7.54188C61.458 7.54188 62.05 8.07847 61.9692 9.20555Z" fill="#FEFEFE"/>
<path fill-rule="evenodd" clip-rule="evenodd" d="M138.622 16.424V16.834C138.547 17.1924 136.179 17.474 135.795 16.6036C135.384 17.217 133.483 17.474 132.683 17.2688C132.683 17.2688 129.956 17.0149 130.986 14.1716C131.296 13.5063 132.296 12.8404 134.947 12.5339C135.845 12.3799 135.768 11.1242 135.486 10.6378C135.151 10.022 134.279 9.40762 133.429 9.76804C132.864 10.0496 132.605 10.3824 132.351 10.7917H131.424V9.92131C131.679 9.66666 132.425 8.84375 134.639 8.84375C136.258 9.02329 137.698 9.04855 137.698 11.5082V16.0155C137.8 16.4005 137.853 16.4759 138.622 16.424ZM135.592 15.4001V13.123C133.381 13.6068 132.892 14.1218 132.866 14.6331C132.763 15.9384 133.431 16.2712 133.816 16.4009C134.459 16.6302 135.386 15.9138 135.592 15.4001ZM141.991 13.1228C142.019 11.0977 143.434 10.6908 143.845 10.9202C144.359 11.2025 144.951 11.0216 144.951 11.0216C144.951 11.0216 145.078 9.20498 145.078 8.89711C142.481 8.58991 142.351 9.69004 141.991 9.58932V8.89711H141.247L141.016 9.07294L140.785 8.89711H139.832V17.0642C140.451 16.8584 141.991 17.0393 141.991 17.0393V13.1228ZM108.359 8.89702C108.359 8.89702 108.385 16.8078 108.385 17.0641C109.003 16.8583 110.418 17.0392 110.418 17.0392V12.1226C110.418 11.4321 110.572 9.84253 112.038 9.84253C113.653 9.84253 113.475 12.0721 113.475 12.0721V17.0392C114.067 16.7852 115.38 17.0392 115.38 17.0392V12.0963C115.38 10.561 116.306 9.84253 117 9.79436C117.72 9.79436 118.464 10.4091 118.464 11.9946V17.0392C119.187 16.7576 120.499 17.0392 120.499 17.0392V11.3051C120.499 9.8944 119.288 8.87344 117.851 8.76935C115.561 8.76935 114.941 9.87015 114.941 9.87015C113.427 7.89895 110.776 8.9472 110.21 9.43394V8.89702H109.544L109.336 9.07285L109.105 8.89702H108.359ZM153.745 4.36719V17.1665H151.634C151.634 16.989 151.607 16.4763 151.607 16.4763C150.762 17.3969 149.91 17.3461 149.061 17.3218C147.236 17.245 145.465 16.1954 145.465 12.9691C145.465 9.97258 147.778 9.10218 148.859 8.94757C150.504 8.79565 151.607 9.6903 151.607 9.6903V4.39144H152.355L152.61 4.49552L152.867 4.36719H153.745ZM150.017 16.2199C150.399 16.1953 151.814 15.812 151.869 13.123C151.789 10.691 150.634 9.69023 150.017 9.66699C149.631 9.66699 148.242 10.05 148.242 12.9933C148.242 15.3744 149.423 16.2711 150.017 16.2199ZM130.269 12.9429C130.269 16.1671 127.622 16.989 126.772 16.989C125.922 16.989 124.663 17.0645 123.816 16.1429C123.479 16.5019 123.042 16.8586 123.042 16.8586H122.042L122.016 4.39144L122.991 4.36719L123.273 4.49552L123.531 4.39144H124.382V9.6903C124.382 9.6903 125.358 8.8738 127.031 9.02369C128.084 9.20525 130.269 9.6903 130.269 12.9429ZM126.051 16.3473C126.719 16.4012 128.03 15.4769 128.03 13.1234C128.03 10.1787 126.51 9.76881 126.051 9.79508C125.382 9.81967 124.098 10.7925 124.02 13.2255C124.072 15.9387 125.613 16.2985 126.051 16.3473ZM106.995 13.0961C106.84 16.6798 104.169 17.0645 102.726 17.0645C102.726 17.0645 98.5078 17.5522 98.5078 13.021C98.5078 9.15205 101.647 8.74413 102.88 8.74413C102.88 8.74413 106.995 8.56459 106.995 13.0961ZM102.726 16.5289C103.447 16.6044 104.861 15.6319 104.861 13.0453C104.861 9.84326 103.212 9.40839 102.726 9.43467C101.98 9.46094 100.591 10.5355 100.488 13.1736C100.566 16.092 102.264 16.5023 102.726 16.5289ZM91.1328 5.5448H92.1074L92.3659 5.67314L92.6466 5.5448H93.7545V15.8121C93.7545 15.8121 97.3035 15.8121 97.793 15.6831C97.588 16.1954 97.6364 16.7061 97.841 16.9627H91.1568L91.1328 5.5448Z" fill="#FEFEFE"/>
<mask id="mask1_1_172" style="mask-type:alpha" maskUnits="userSpaceOnUse" x="105" y="25" width="49" height="5">
<path fill-rule="evenodd" clip-rule="evenodd" d="M105.473 25.8652H153.834V29.039H105.473V25.8652Z" fill="white"/>
</mask>
<g mask="url(#mask1_1_172)">
<path fill-rule="evenodd" clip-rule="evenodd" d="M106.341 25.8652H153.835L152.676 29.039H105.473L106.341 25.8652Z" fill="#F4811F"/>
</g>
<path fill-rule="evenodd" clip-rule="evenodd" d="M20.6641 29.6363L23.0967 21.2891H25.1599L26.7681 28.1084L28.5583 21.2891H30.2917L27.8706 29.6363H25.5804L24.0628 22.8678L22.3748 29.6363H20.6641Z" fill="#FEFEFE"/>
<path fill-rule="evenodd" clip-rule="evenodd" d="M31.5508 22.6246L31.9432 21.2891H33.6766L33.2845 22.6246H31.5508ZM29.5234 29.636L31.2456 23.8184H32.9963L31.2683 29.636H29.5234Z" fill="#FEFEFE"/>
<path fill-rule="evenodd" clip-rule="evenodd" d="M37.06 24.748C36.5712 24.748 36.1423 25.03 35.7725 25.5942C35.4035 26.1581 35.2188 26.7984 35.2188 27.5152C35.2188 27.8776 35.2962 28.1576 35.4515 28.3556C35.6071 28.5537 35.8287 28.6527 36.1166 28.6527C36.3439 28.6527 36.554 28.5793 36.7475 28.4321C36.9406 28.2849 37.1169 28.0643 37.2759 27.7699C37.4579 27.4455 37.6047 27.0891 37.7163 26.7004C37.8283 26.312 37.8841 25.9819 37.8841 25.7101C37.8841 25.4005 37.8131 25.163 37.671 24.997C37.5289 24.8312 37.3253 24.748 37.06 24.748ZM32.8672 29.6373L35.334 21.29H37.0958L36.1634 24.3742C36.4591 24.1289 36.747 23.9518 37.0274 23.8423C37.3079 23.7328 37.6052 23.6782 37.9198 23.6782C38.4614 23.6782 38.8728 23.8403 39.1532 24.165C39.4333 24.4894 39.5737 24.9609 39.5737 25.5797C39.5737 26.7378 39.278 27.7207 38.6871 28.5281C38.0961 29.3355 37.3627 29.739 36.4875 29.739C36.086 29.739 35.7497 29.6579 35.4788 29.4958C35.2078 29.3335 35.0058 29.0903 34.8736 28.7656L34.6006 29.6373H32.8672Z" fill="#FEFEFE"/>
<path fill-rule="evenodd" clip-rule="evenodd" d="M39.9414 29.6367L42.4193 21.2783H44.1585L43.1693 24.6056C43.5181 24.289 43.8564 24.0549 44.1842 23.904C44.5116 23.7531 44.8479 23.6776 45.193 23.6776C45.6435 23.6776 45.9933 23.7966 46.2416 24.034C46.4896 24.2718 46.6138 24.6097 46.6138 25.0472C46.6138 25.3265 46.5343 25.7395 46.3749 26.2865C46.3523 26.3619 46.3353 26.4185 46.3238 26.4563L45.3919 29.6367H43.647L44.7495 25.9187C44.7836 25.8092 44.81 25.7091 44.8293 25.6185C44.8479 25.5283 44.8577 25.4488 44.8577 25.3811C44.8577 25.2187 44.8036 25.0934 44.6957 25.0048C44.5874 24.9162 44.4352 24.8718 44.238 24.8718C43.8892 24.8718 43.5665 25.0206 43.2691 25.3187C42.9718 25.6168 42.7468 26.0204 42.5956 26.5297L41.6863 29.6367H39.9414Z" fill="#FEFEFE"/>
<path fill-rule="evenodd" clip-rule="evenodd" d="M50.9828 26.8074C50.9375 26.8036 50.8912 26.8006 50.8435 26.7989C50.7961 26.7969 50.7386 26.7959 50.6703 26.7959C50.1246 26.7959 49.6747 26.9148 49.3205 27.1526C48.9663 27.3901 48.7891 27.6882 48.7891 28.0466C48.7891 28.2356 48.8412 28.3814 48.9454 28.4852C49.0495 28.5892 49.1943 28.6408 49.38 28.6408C49.7136 28.6408 50.0289 28.474 50.3266 28.1402C50.6236 27.8061 50.8425 27.3618 50.9828 26.8074ZM50.3994 29.6368C50.4031 29.5011 50.4126 29.3623 50.4278 29.2211C50.4427 29.0797 50.4619 28.9335 50.4843 28.7822C50.2306 29.1029 49.9633 29.337 49.6832 29.4842C49.4028 29.6314 49.0882 29.7049 48.7397 29.7049C48.2546 29.7049 47.8683 29.5661 47.5804 29.2889C47.2922 29.0116 47.1484 28.6408 47.1484 28.1769C47.1484 27.4487 47.4607 26.8885 48.0862 26.4961C48.7113 26.1037 49.6091 25.9076 50.7799 25.9076C50.9088 25.9076 51.0062 25.9086 51.0726 25.9103C51.1389 25.9123 51.2008 25.9134 51.2576 25.9134C51.3219 25.7018 51.3652 25.5418 51.3882 25.432C51.4108 25.3229 51.422 25.2286 51.422 25.1494C51.422 24.9793 51.3682 24.8503 51.2603 24.7617C51.1524 24.6731 50.992 24.6286 50.7799 24.6286C50.5374 24.6286 50.3469 24.6862 50.2089 24.8011C50.0705 24.9163 49.9653 25.1022 49.8933 25.3586H48.2509C48.3456 24.8267 48.6213 24.4137 49.0777 24.1193C49.5344 23.8249 50.1321 23.6777 50.8709 23.6777C51.5908 23.6777 52.1297 23.8014 52.4879 24.0486C52.8458 24.2955 53.0248 24.6664 53.0248 25.1605C53.0248 25.3114 53.0099 25.4681 52.9795 25.6301C52.949 25.7924 52.9017 25.9737 52.8374 26.1734L52.2349 28.1544C52.1628 28.3844 52.1043 28.6249 52.0587 28.8759C52.0133 29.1268 51.9812 29.3805 51.9622 29.6368H50.3994Z" fill="#FEFEFE"/>
<path fill-rule="evenodd" clip-rule="evenodd" d="M54.1389 31.8385L55.3838 29.6824L54.082 23.8193H55.7927L56.4805 27.8544L58.4584 23.8193H60.0781L56.8783 29.9256L55.969 31.8385H54.1389Z" fill="#FEFEFE"/>
<path fill-rule="evenodd" clip-rule="evenodd" d="M62.2617 26.0778H64.103C64.1561 25.8966 64.195 25.7484 64.2197 25.6336C64.2441 25.5184 64.2566 25.4193 64.2566 25.3365C64.2566 25.1367 64.196 24.9791 64.0746 24.8639C63.9531 24.749 63.7887 24.6914 63.58 24.6914C63.2769 24.6914 63.0053 24.8167 62.7647 25.0677C62.5239 25.3186 62.3564 25.6554 62.2617 26.0778ZM65.2445 27.8661C65.0398 28.5074 64.7083 28.9847 64.2499 29.298C63.7915 29.6109 63.187 29.7675 62.437 29.7675C61.7057 29.7675 61.1526 29.6025 60.7774 29.2724C60.4023 28.9423 60.2148 28.4566 60.2148 27.8152C60.2148 27.3436 60.3048 26.8293 60.4848 26.2731C60.6648 25.7163 60.889 25.2535 61.1583 24.8837C61.4651 24.4687 61.8173 24.1622 62.2155 23.9641C62.6133 23.766 63.0791 23.667 63.6136 23.667C64.3484 23.667 64.8987 23.8206 65.2644 24.1281C65.6301 24.4357 65.8128 24.8968 65.8128 25.5119C65.8128 25.7194 65.7901 25.9531 65.7448 26.2135C65.6995 26.4739 65.6291 26.7814 65.5344 27.1361H61.9256C61.8799 27.2982 61.8477 27.4437 61.8288 27.5717C61.8099 27.7 61.8004 27.8206 61.8004 27.9338C61.8004 28.183 61.862 28.3723 61.9851 28.5027C62.1082 28.6327 62.2872 28.6977 62.5223 28.6977C62.7533 28.6977 62.9597 28.6253 63.1417 28.4801C63.3237 28.335 63.4658 28.1302 63.5679 27.8661H65.2445Z" fill="#FEFEFE"/>
<path fill-rule="evenodd" clip-rule="evenodd" d="M71.8984 29.6363L70.6992 21.2891H72.4441L73.2452 27.7234L76.4623 21.2891H78.2978L73.6771 29.6363H71.8984Z" fill="#FEFEFE"/>
<path fill-rule="evenodd" clip-rule="evenodd" d="M80.3149 26.8074C80.2692 26.8036 80.2232 26.8006 80.1758 26.7989C80.1281 26.7969 80.0703 26.7959 80.0023 26.7959C79.4566 26.7959 79.0067 26.9148 78.6525 27.1526C78.298 27.3901 78.1211 27.6882 78.1211 28.0466C78.1211 28.2356 78.1732 28.3814 78.2774 28.4852C78.3816 28.5892 78.5264 28.6408 78.7124 28.6408C79.0456 28.6408 79.3609 28.474 79.6586 28.1402C79.9556 27.8061 80.1748 27.3618 80.3149 26.8074ZM79.7278 29.6368C79.7312 29.5011 79.741 29.3623 79.7562 29.2211C79.7711 29.0797 79.7901 28.9335 79.8127 28.7822C79.559 29.1029 79.2918 29.337 79.0113 29.4842C78.7309 29.6314 78.417 29.7049 78.0682 29.7049C77.5831 29.7049 77.1964 29.5661 76.9089 29.2889C76.6207 29.0116 76.4766 28.6408 76.4766 28.1769C76.4766 27.4487 76.7895 26.8885 77.4146 26.4961C78.0394 26.1037 78.9379 25.9076 80.1087 25.9076C80.2369 25.9076 80.3347 25.9086 80.4014 25.9103C80.4673 25.9123 80.5292 25.9134 80.5861 25.9134C80.6503 25.7018 80.694 25.5418 80.7166 25.432C80.7393 25.3229 80.7508 25.2286 80.7508 25.1494C80.7508 24.9793 80.6967 24.8503 80.5884 24.7617C80.4808 24.6731 80.3205 24.6286 80.1087 24.6286C79.8662 24.6286 79.6754 24.6862 79.5374 24.8011C79.399 24.9163 79.2938 25.1022 79.2217 25.3586H77.5794C77.6741 24.8267 77.9498 24.4137 78.4061 24.1193C78.8628 23.8249 79.4602 23.6777 80.1994 23.6777C80.9193 23.6777 81.4585 23.8014 81.8161 24.0486C82.1743 24.2955 82.3533 24.6664 82.3533 25.1605C82.3533 25.3114 82.338 25.4681 82.3079 25.6301C82.2778 25.7924 82.2301 25.9737 82.1662 26.1734L81.5634 28.1544C81.4913 28.3844 81.4328 28.6249 81.3875 28.8759C81.3418 29.1268 81.3093 29.3805 81.2907 29.6368H79.7278Z" fill="#FEFEFE"/>
<path fill-rule="evenodd" clip-rule="evenodd" d="M86.7133 26.8074C86.6676 26.8036 86.6216 26.8006 86.5743 26.7989C86.5266 26.7969 86.4687 26.7959 86.4007 26.7959C85.8551 26.7959 85.4052 26.9148 85.051 27.1526C84.6965 27.3901 84.5195 27.6882 84.5195 28.0466C84.5195 28.2356 84.5716 28.3814 84.6758 28.4852C84.78 28.5892 84.9248 28.6408 85.1109 28.6408C85.4441 28.6408 85.7593 28.474 86.057 28.1402C86.3541 27.8061 86.5733 27.3618 86.7133 26.8074ZM86.1263 29.6368C86.1296 29.5011 86.1395 29.3623 86.1547 29.2211C86.1696 29.0797 86.1885 28.9335 86.2112 28.7822C85.9575 29.1029 85.6902 29.337 85.4098 29.4842C85.1293 29.6314 84.8154 29.7049 84.4666 29.7049C83.9815 29.7049 83.5949 29.5661 83.3073 29.2889C83.0191 29.0116 82.875 28.6408 82.875 28.1769C82.875 27.4487 83.1879 26.8885 83.8131 26.4961C84.4379 26.1037 85.3364 25.9076 86.5072 25.9076C86.6354 25.9076 86.7331 25.9086 86.7998 25.9103C86.8658 25.9123 86.9277 25.9134 86.9845 25.9134C87.0488 25.7018 87.0924 25.5418 87.1151 25.432C87.1377 25.3229 87.1492 25.2286 87.1492 25.1494C87.1492 24.9793 87.0951 24.8503 86.9869 24.7617C86.8793 24.6731 86.7189 24.6286 86.5072 24.6286C86.2646 24.6286 86.0738 24.6862 85.9358 24.8011C85.7974 24.9163 85.6922 25.1022 85.6202 25.3586H83.9778C84.0725 24.8267 84.3482 24.4137 84.8046 24.1193C85.2613 23.8249 85.8587 23.6777 86.5978 23.6777C87.3177 23.6777 87.8569 23.8014 88.2145 24.0486C88.5727 24.2955 88.7517 24.6664 88.7517 25.1605C88.7517 25.3114 88.7365 25.4681 88.7064 25.6301C88.6763 25.7924 88.6286 25.9737 88.5646 26.1734L87.9618 28.1544C87.8897 28.3844 87.8312 28.6249 87.7859 28.8759C87.7402 29.1268 87.7077 29.3805 87.6891 29.6368H86.1263Z" fill="#FEFEFE"/>
<path fill-rule="evenodd" clip-rule="evenodd" d="M92.1386 28.6293C92.6274 28.6293 93.0557 28.3463 93.4231 27.7804C93.7908 27.2145 93.9745 26.5732 93.9745 25.8564C93.9745 25.4943 93.8967 25.2151 93.7414 25.0187C93.5858 24.8226 93.3663 24.7246 93.0821 24.7246C92.8548 24.7246 92.6454 24.7974 92.4542 24.9425C92.2628 25.0877 92.0875 25.3073 91.9286 25.6017C91.7503 25.9261 91.6045 26.2835 91.4908 26.6743C91.3771 27.0647 91.3203 27.3958 91.3203 27.6673C91.3203 27.9768 91.3903 28.2143 91.5304 28.3804C91.6708 28.5464 91.8734 28.6293 92.1386 28.6293ZM93.0817 29.6363L93.1842 28.8835C92.8733 29.1816 92.5637 29.3985 92.2549 29.5343C91.946 29.67 91.6115 29.7381 91.2515 29.7381C90.7096 29.7381 90.2989 29.5787 90.0181 29.2601C89.7377 28.9411 89.5977 28.4726 89.5977 27.8538C89.5977 26.6917 89.894 25.7051 90.487 24.8939C91.08 24.0828 91.8124 23.6773 92.6838 23.6773C93.0854 23.6773 93.4216 23.7591 93.6926 23.9232C93.9636 24.0875 94.1672 24.3297 94.3035 24.6504L95.2924 21.2891H97.0261L95.1053 27.814C94.9723 28.2667 94.8719 28.6251 94.8039 28.8892C94.7355 29.1533 94.6767 29.4022 94.6273 29.6363H93.0817Z" fill="#FEFEFE"/>
<path fill-rule="evenodd" clip-rule="evenodd" d="M98.6641 26.0778H100.505C100.559 25.8966 100.597 25.7484 100.622 25.6336C100.647 25.5184 100.659 25.4193 100.659 25.3365C100.659 25.1367 100.598 24.9791 100.477 24.8639C100.356 24.749 100.191 24.6914 99.9827 24.6914C99.6796 24.6914 99.4076 24.8167 99.1671 25.0677C98.9262 25.3186 98.7588 25.6554 98.6641 26.0778ZM101.647 27.8661C101.442 28.5074 101.111 28.9847 100.653 29.298C100.194 29.6109 99.5897 29.7675 98.8394 29.7675C98.108 29.7675 97.5553 29.6025 97.1798 29.2724C96.8049 28.9423 96.6172 28.4566 96.6172 27.8152C96.6172 27.3436 96.7072 26.8293 96.8871 26.2731C97.0671 25.7163 97.2914 25.2535 97.5607 24.8837C97.8675 24.4687 98.2196 24.1622 98.6178 23.9641C99.0156 23.766 99.4818 23.667 100.016 23.667C100.751 23.667 101.301 23.8206 101.667 24.1281C102.032 24.4357 102.215 24.8968 102.215 25.5119C102.215 25.7194 102.193 25.9531 102.147 26.2135C102.102 26.4739 102.031 26.7814 101.937 27.1361H98.3279C98.2826 27.2982 98.2501 27.4437 98.2315 27.5717C98.2122 27.7 98.2031 27.8206 98.2031 27.9338C98.2031 28.183 98.2643 28.3723 98.3878 28.5027C98.5109 28.6327 98.6899 28.6977 98.9246 28.6977C99.1557 28.6977 99.362 28.6253 99.544 28.4801C99.7264 28.335 99.8684 28.1302 99.9703 27.8661H101.647Z" fill="#FEFEFE"/>
</svg>
