<svg width="90" height="12" viewBox="0 0 90 12" fill="none" xmlns="http://www.w3.org/2000/svg">
<path fill-rule="evenodd" clip-rule="evenodd" d="M3.19833 11.8796C2.73881 12.1387 2.47366 11.9658 2.60596 11.4922L3.70141 7.57611L0.256635 4.98694C-0.159874 4.67395 -0.0586056 4.39377 0.48204 4.35998L4.96128 4.08715L6.63385 0.339075C6.83639 -0.113025 7.16361 -0.113025 7.3656 0.339075L9.03872 4.08715L13.518 4.35998C14.0586 4.39377 14.1599 4.67395 13.7434 4.98694L10.2991 7.57611L11.394 11.4922C11.5258 11.9658 11.2617 12.1387 10.8017 11.8796L6.99973 9.73228L3.19833 11.8796Z" fill="#FAA61A"/>
<path fill-rule="evenodd" clip-rule="evenodd" d="M22.1983 11.8796C21.7388 12.1387 21.4737 11.9658 21.606 11.4922L22.7014 7.57611L19.2566 4.98694C18.8401 4.67395 18.9414 4.39377 19.482 4.35998L23.9613 4.08715L25.6339 0.339075C25.8364 -0.113025 26.1636 -0.113025 26.3656 0.339075L28.0387 4.08715L32.518 4.35998C33.0586 4.39377 33.1599 4.67395 32.7434 4.98694L29.2991 7.57611L30.394 11.4922C30.5258 11.9658 30.2617 12.1387 29.8017 11.8796L25.9997 9.73228L22.1983 11.8796Z" fill="#FAA61A"/>
<path fill-rule="evenodd" clip-rule="evenodd" d="M41.1983 11.8796C40.7388 12.1387 40.4737 11.9658 40.606 11.4922L41.7014 7.57611L38.2566 4.98694C37.8401 4.67395 37.9414 4.39377 38.482 4.35998L42.9613 4.08715L44.6339 0.339075C44.8364 -0.113025 45.1636 -0.113025 45.3656 0.339075L47.0387 4.08715L51.518 4.35998C52.0586 4.39377 52.1599 4.67395 51.7434 4.98694L48.2991 7.57611L49.394 11.4922C49.5258 11.9658 49.2617 12.1387 48.8017 11.8796L44.9997 9.73228L41.1983 11.8796Z" fill="#FAA61A"/>
<path fill-rule="evenodd" clip-rule="evenodd" d="M60.1983 11.8796C59.7388 12.1387 59.4737 11.9658 59.606 11.4922L60.7014 7.57611L57.2566 4.98694C56.8401 4.67395 56.9414 4.39377 57.482 4.35998L61.9613 4.08715L63.6339 0.339075C63.8364 -0.113025 64.1636 -0.113025 64.3656 0.339075L66.0387 4.08715L70.518 4.35998C71.0586 4.39377 71.1599 4.67395 70.7434 4.98694L67.2991 7.57611L68.394 11.4922C68.5258 11.9658 68.2617 12.1387 67.8017 11.8796L63.9997 9.73228L60.1983 11.8796Z" fill="#FAA61A"/>
<path fill-rule="evenodd" clip-rule="evenodd" d="M79.1983 11.8796C78.7388 12.1387 78.4737 11.9658 78.606 11.4922L79.7014 7.57611L76.2566 4.98694C75.8401 4.67395 75.9414 4.39377 76.482 4.35998L80.9613 4.08715L82.6339 0.339075C82.8364 -0.113025 83.1636 -0.113025 83.3656 0.339075L85.0387 4.08715L89.518 4.35998C90.0586 4.39377 90.1599 4.67395 89.7434 4.98694L86.2991 7.57611L87.394 11.4922C87.5258 11.9658 87.2617 12.1387 86.8017 11.8796L82.9997 9.73228L79.1983 11.8796Z" fill="#CBCDCE"/>
</svg>
